<?xml version="1.0" encoding="UTF-8"?>
<svg version="1.1" xmlns="http://www.w3.org/2000/svg" width="1202" height="1202">
<path d="M0 0 C1.05286194 0.00060425 2.10572388 0.0012085 3.19049072 0.00183105 C20.80884191 0.02914788 38.26408194 0.49675047 55.8125 2.1875 C56.4704657 2.25066406 57.1284314 2.31382813 57.80633545 2.37890625 C145.23365367 10.86452184 230.60948826 37.73089006 364.16796875 121.89160156 C365.90484914 123.26027156 367.65451289 124.61134649 369.40625 125.9609375 C380.14625931 134.27171082 390.50141424 143.00249618 400.546875 152.140625 C402.63011127 154.02272121 404.74468933 155.85912312 406.875 157.6875 C410.63533914 160.95604429 414.11073448 164.46730878 417.60546875 168.015625 C419.54882275 169.92802292 421.5352379 171.68954164 423.625 173.4375 C428.49051201 177.60237828 432.68248768 182.37599244 436.984375 187.10546875 C439.13817198 189.46909733 441.34022331 191.76153635 443.625 194 C447.2319876 197.55521266 450.51528284 201.34596046 453.8125 205.1875 C454.69604655 206.19581053 455.58020766 207.20358274 456.46484375 208.2109375 C463.79079713 216.59889016 470.60564872 225.30566727 477.3046875 234.19921875 C478.67772379 236.00977697 480.0669634 237.80541013 481.46875 239.59375 C502.01478557 265.81734944 519.32008465 294.75141917 534.8125 324.1875 C535.32925293 325.16895996 535.84600586 326.15041992 536.37841797 327.16162109 C570.91962198 393.2991496 591.75811715 466.14625177 599.125 540.3125 C599.20640228 541.13136688 599.28780457 541.95023376 599.37167358 542.79391479 C601.24935057 561.99885027 602.02058888 581.0790244 602 600.375 C601.99939575 601.42786194 601.9987915 602.48072388 601.99816895 603.56549072 C601.97085212 621.18384191 601.50324953 638.63908194 599.8125 656.1875 C599.74933594 656.8454657 599.68617187 657.5034314 599.62109375 658.18133545 C591.10571148 745.91533987 564.14291384 831.92847693 449.859375 1000.921875 C447.97727879 1003.00511127 446.14087688 1005.11968933 444.3125 1007.25 C441.04395571 1011.01033914 437.53269122 1014.48573448 433.984375 1017.98046875 C432.07197708 1019.92382275 430.31045836 1021.9102379 428.5625 1024 C424.39762172 1028.86551201 419.62400756 1033.05748768 414.89453125 1037.359375 C412.53090267 1039.51317198 410.23846365 1041.71522331 408 1044 C404.44478734 1047.6069876 400.65403954 1050.89028284 396.8125 1054.1875 C395.80418947 1055.07104655 394.79641726 1055.95520766 393.7890625 1056.83984375 C385.52586794 1064.05683467 376.96217924 1070.79292926 368.19067383 1077.37939453 C366.43445064 1078.71463619 364.69140185 1080.06724731 362.95581055 1081.42919922 C354.49245543 1088.06617776 345.71784032 1094.12967675 336.75 1100.0625 C336.02606049 1100.54305847 335.30212097 1101.02361694 334.5562439 1101.51873779 C323.16731175 1109.07332664 311.71209557 1116.45564434 299.8125 1123.1875 C298.55397217 1123.900271 298.55397217 1123.900271 297.27001953 1124.62744141 C290.83624087 1128.24696229 284.3448917 1131.74945653 277.8125 1135.1875 C276.83104004 1135.70425293 275.84958008 1136.22100586 274.83837891 1136.75341797 C203.04656179 1174.24764941 123.48798662 1195.4821162 42.8125 1201.1875 C41.81629135 1201.25848404 41.81629135 1201.25848404 40.79995728 1201.3309021 C27.74413195 1202.2341401 14.70871322 1202.38896037 1.625 1202.375 C0.57213806 1202.37439575 -0.48072388 1202.3737915 -1.56549072 1202.37316895 C-19.18384191 1202.34585212 -36.63908194 1201.87824953 -54.1875 1200.1875 C-54.8454657 1200.12433594 -55.5034314 1200.06117187 -56.18133545 1199.99609375 C-143.60865367 1191.51047816 -228.98448826 1164.64410994 -362.54296875 1080.48339844 C-364.27984914 1079.11472844 -366.02951289 1077.76365351 -367.78125 1076.4140625 C-378.52125931 1068.10328918 -388.87641424 1059.37250382 -398.921875 1050.234375 C-401.00511127 1048.35227879 -403.11968933 1046.51587688 -405.25 1044.6875 C-409.01033914 1041.41895571 -412.48573448 1037.90769122 -415.98046875 1034.359375 C-417.92382275 1032.44697708 -419.9102379 1030.68545836 -422 1028.9375 C-426.86551201 1024.77262172 -431.05748768 1019.99900756 -435.359375 1015.26953125 C-437.51317198 1012.90590267 -439.71522331 1010.61346365 -442 1008.375 C-445.6069876 1004.81978734 -448.89028284 1001.02903954 -452.1875 997.1875 C-453.07104655 996.17918947 -453.95520766 995.17141726 -454.83984375 994.1640625 C-462.16579713 985.77610984 -468.98064872 977.06933273 -475.6796875 968.17578125 C-477.05272379 966.36522303 -478.4419634 964.56958987 -479.84375 962.78125 C-500.38978557 936.55765056 -517.69508465 907.62358083 -533.1875 878.1875 C-533.96262939 876.71531006 -533.96262939 876.71531006 -534.75341797 875.21337891 C-569.29462198 809.0758504 -590.13311715 736.22874823 -597.5 662.0625 C-597.58140228 661.24363312 -597.66280457 660.42476624 -597.74667358 659.58108521 C-599.62435057 640.37614973 -600.39558888 621.2959756 -600.375 602 C-600.37439575 600.94713806 -600.3737915 599.89427612 -600.37316895 598.80950928 C-600.34585212 581.19115809 -599.87824953 563.73591806 -598.1875 546.1875 C-598.12433594 545.5295343 -598.06117188 544.8715686 -597.99609375 544.19366455 C-589.48071148 456.45966013 -562.51791384 370.44652307 -448.234375 201.453125 C-446.35227879 199.36988873 -444.51587688 197.25531067 -442.6875 195.125 C-439.41895571 191.36466086 -435.90769122 187.88926552 -432.359375 184.39453125 C-430.44697708 182.45117725 -428.68545836 180.4647621 -426.9375 178.375 C-422.77262172 173.50948799 -417.99900756 169.31751232 -413.26953125 165.015625 C-410.90590267 162.86182802 -408.61346365 160.65977669 -406.375 158.375 C-402.81978734 154.7680124 -399.02903954 151.48471716 -395.1875 148.1875 C-394.17918947 147.30395345 -393.17141726 146.41979234 -392.1640625 145.53515625 C-383.90086794 138.31816533 -375.33717924 131.58207074 -366.56567383 124.99560547 C-364.80945064 123.66036381 -363.06640185 122.30775269 -361.33081055 120.94580078 C-352.86745543 114.30882224 -344.09284032 108.24532325 -335.125 102.3125 C-334.40106049 101.83194153 -333.67712097 101.35138306 -332.9312439 100.85626221 C-321.54231175 93.30167336 -310.08709557 85.91935566 -298.1875 79.1875 C-297.34848145 78.71231934 -296.50946289 78.23713867 -295.64501953 77.74755859 C-289.21124087 74.12803771 -282.7198917 70.62554347 -276.1875 67.1875 C-274.71531006 66.41237061 -274.71531006 66.41237061 -273.21337891 65.62158203 C-201.42156179 28.12735059 -121.86298662 6.8928838 -41.1875 1.1875 C-40.5233609 1.14017731 -39.8592218 1.09285461 -39.17495728 1.0440979 C-26.11913195 0.1408599 -13.08371322 -0.01396037 0 0 Z " fill="#000061" transform="translate(600.1875,-0.1875)"/>
<path d="M0 0 C1.07362793 0.28883057 1.07362793 0.28883057 2.16894531 0.58349609 C26.2115461 7.2115461 26.2115461 7.2115461 31 12 C31.53316701 20.85945848 30.05021859 29.35853471 28.66448975 38.0770874 C27.95507113 42.54493085 27.27063892 47.01659358 26.5859375 51.48828125 C26.44829987 52.38454224 26.31066223 53.28080322 26.16885376 54.20422363 C24.9428498 62.24654559 23.88073288 70.30227613 22.875 78.375 C21.56745209 88.83808065 20.07294426 99.25286917 18.42700195 109.66772461 C17.34488065 116.57853268 16.3997945 123.49298533 15.5625 130.4375 C14.38860237 140.14906244 13.08469616 149.83922601 11.71554565 159.52493286 C11.48903916 161.12959911 11.26403603 162.7344783 11.04055786 164.33956909 C10.72665754 166.59029492 10.40715121 168.84015151 10.0859375 171.08984375 C9.94391655 172.11615906 9.94391655 172.11615906 9.79902649 173.16320801 C9.11456582 177.88543418 9.11456582 177.88543418 8 179 C5.85441173 179.08775605 3.70595579 179.10695219 1.55859375 179.09765625 C0.25341797 179.09443359 -1.05175781 179.09121094 -2.39648438 179.08789062 C-3.7851569 179.07953401 -5.17382877 179.07106905 -6.5625 179.0625 C-7.95507656 179.05748666 -9.34765481 179.05292347 -10.74023438 179.04882812 C-14.1601987 179.03699434 -17.58007844 179.0205088 -21 179 C-21.33591896 176.72954771 -21.66865065 174.45862367 -22 172.1875 C-22.185625 170.92292969 -22.37125 169.65835938 -22.5625 168.35546875 C-23 165 -23 165 -23 162 C-23.79921875 162.50789062 -24.5984375 163.01578125 -25.421875 163.5390625 C-36.83590221 170.69292462 -47.91046139 176.45952662 -61 180 C-61.73347656 180.226875 -62.46695313 180.45375 -63.22265625 180.6875 C-73.30145437 183.48392954 -86.07765118 183.24597285 -96 180 C-97.31871094 179.5978125 -97.31871094 179.5978125 -98.6640625 179.1875 C-107.4905939 176.26963838 -114.73983787 171.93693641 -121 165 C-121.46921875 164.53464844 -121.9384375 164.06929687 -122.421875 163.58984375 C-127.53927843 158.22184583 -130.38470212 151.86493797 -133 145 C-133.2470166 144.3723877 -133.4940332 143.74477539 -133.74853516 143.09814453 C-137.9703971 131.85935298 -138.45460073 120.62419945 -138.4375 108.75 C-138.43772156 108.0333316 -138.43794312 107.31666321 -138.43817139 106.57827759 C-138.36381447 83.97474408 -134.07450339 63.78411036 -123 44 C-122.44441406 43.00226562 -121.88882813 42.00453125 -121.31640625 40.9765625 C-108.51692052 19.55200366 -87.02928662 5.35063607 -63.1953125 -1.02734375 C-61.79949834 -1.36267651 -60.40080317 -1.68615971 -59 -2 C-57.77156372 -2.27602051 -57.77156372 -2.27602051 -56.51831055 -2.55761719 C-37.98605878 -6.33716576 -18.1619934 -4.96020828 0 0 Z " fill="#FDFDFD" transform="translate(679,648)"/>
<path d="M0 0 C0.00546844 0.96550529 0.00546844 0.96550529 0.01104736 1.95051575 C0.25929582 41.94987656 1.83618946 81.29529351 7.5625 120.9375 C7.66228149 121.6286087 7.76206299 122.31971741 7.86486816 123.0317688 C9.10790123 131.49573818 10.75225629 139.74480777 13 148 C39.15062496 101.63019388 58.53135013 52.52246824 75 2 C89.85 2 104.7 2 120 2 C120.12375 6.24875 120.2475 10.4975 120.375 14.875 C121.53373288 48.64514147 126.24570583 81.29809345 132.625 114.4375 C132.76489349 115.16950623 132.90478699 115.90151245 133.04891968 116.65570068 C134.76034162 125.55449025 136.78264177 134.28514138 139.24365234 143.00805664 C140 146 140 146 140 149 C140.66 149 141.32 149 142 149 C142.17160645 148.44892578 142.34321289 147.89785156 142.52001953 147.33007812 C144.28058928 141.84446438 146.4231373 136.70623156 148.875 131.5 C159.68026723 107.96620527 168.58788463 83.47174558 177 59 C177.24639221 58.28509399 177.49278442 57.57018799 177.74664307 56.83361816 C179.37171094 52.11482938 180.98300175 47.39158616 182.58004761 42.66323853 C183.09869233 41.12956414 183.61952639 39.59662788 184.14285278 38.06454468 C187.11078221 29.35667292 189.71271512 20.68127934 191.68856812 11.69075012 C192.56765136 7.69526453 193.63520956 3.8571631 195 0 C198.77102364 0.14114675 202.5417672 0.2888013 206.3125 0.4375 C207.36501953 0.47681641 208.41753906 0.51613281 209.50195312 0.55664062 C216.36052848 0.83098364 223.17098103 1.30680652 230 2 C228.53552125 20.30598444 220.52858725 38.92138461 214.4375 56.1875 C214.18088593 56.91544769 213.92427185 57.64339539 213.65988159 58.3934021 C198.71307406 100.63268749 179.10794895 141.02348244 159 181 C144.15 181 129.3 181 114 181 C112.28410799 176.71026997 111.06702523 172.58261128 110.01171875 168.11328125 C109.82822876 167.34745224 109.64473877 166.58162323 109.45568848 165.79258728 C108.86105882 163.30043287 108.27342659 160.80671413 107.6875 158.3125 C107.48613434 157.45853638 107.28476868 156.60457275 107.07730103 155.72473145 C98.62399112 119.79111748 91.17626837 83.06792335 92 46 C91.34 46 90.68 46 90 46 C89.77183594 47.19753906 89.54367187 48.39507813 89.30859375 49.62890625 C87.82677368 56.26668366 85.42792414 62.57370437 83.0625 68.9375 C82.82045837 69.59272644 82.57841675 70.24795288 82.32904053 70.92303467 C68.21714475 109.05522762 50.24981174 145.25034963 31 181 C15.82 181 0.64 181 -15 181 C-17.95982072 167.97678885 -20.84400865 155.13539655 -23.0625 142 C-23.56974769 139.04004265 -24.07994424 136.08059524 -24.58984375 133.12109375 C-24.71202271 132.4081163 -24.83420166 131.69513885 -24.96008301 130.96055603 C-25.63878057 127.01759841 -26.3547945 123.08545725 -27.12890625 119.16015625 C-30.19623802 103.56360378 -31.93560349 87.83133869 -33.57714844 72.03271484 C-33.92857027 68.65074886 -34.30965503 65.27277558 -34.6953125 61.89453125 C-36.80161461 42.02157085 -36.18228259 21.95573665 -36 2 C-31.4457167 1.40042332 -26.95587054 0.87278598 -22.36328125 0.68359375 C-20.87924805 0.62075195 -20.87924805 0.62075195 -19.36523438 0.55664062 C-18.35783203 0.51732422 -17.35042969 0.47800781 -16.3125 0.4375 C-15.29349609 0.39431641 -14.27449219 0.35113281 -13.22460938 0.30664062 C-8.81178704 0.12481734 -4.41679563 -0.00895528 0 0 Z " fill="#FCFCFD" transform="translate(321,646)"/>
<path d="M0 0 C1.29228516 -0.00322266 2.58457031 -0.00644531 3.91601562 -0.00976562 C20.91116623 0.08576154 37.34040772 4.89713641 50.16015625 16.5625 C61.10965312 27.96898756 65.13131921 40.10985872 64.87109375 55.5703125 C64.2191266 68.85934504 60.20522658 81.66882997 50.6875 91.3125 C37.07070753 103.18685931 19.27334443 108.45792931 1.37524414 108.42602539 C0.68171844 108.42617142 -0.01180725 108.42631744 -0.72634888 108.4264679 C-2.99338023 108.4257774 -5.26032695 108.41802592 -7.52734375 108.41015625 C-9.10917618 108.408289 -10.69100919 108.40686655 -12.27284241 108.40586853 C-16.41726301 108.40206755 -20.56164805 108.39225814 -24.70605469 108.38116455 C-28.94270344 108.3708982 -33.17935799 108.36635976 -37.41601562 108.36132812 C-45.71485999 108.35063351 -54.01367556 108.33358643 -62.3125 108.3125 C-62.18902091 110.68034866 -62.05613405 113.04706178 -61.91796875 115.4140625 C-61.88441284 116.07607666 -61.85085693 116.73809082 -61.81628418 117.42016602 C-61.16493401 128.19224135 -57.35139642 138.38192459 -49.5703125 146.0234375 C-35.79805491 157.28125802 -18.10436346 157.4955771 -1.18798828 156.14257812 C8.41277699 155.08130498 16.70368092 151.96632987 25.39453125 147.91796875 C26.15636719 147.56863281 26.91820312 147.21929688 27.703125 146.859375 C28.37633789 146.53807617 29.04955078 146.21677734 29.74316406 145.88574219 C32.17704789 145.1681682 33.37592474 145.26973892 35.6875 146.3125 C36.69238281 147.99902344 36.69238281 147.99902344 37.390625 150.171875 C37.6484375 150.95820312 37.90625 151.74453125 38.171875 152.5546875 C38.42453125 153.38226562 38.6771875 154.20984375 38.9375 155.0625 C39.3396875 156.28066406 39.3396875 156.28066406 39.75 157.5234375 C41.03028024 161.53411132 42.0686519 165.05052871 41.6875 169.3125 C12.0570639 183.26039943 -22.0387204 192.45138054 -54.3125 181.3125 C-68.78389977 176.03946069 -80.34065366 166.08797119 -87.3125 152.3125 C-89.2370925 148.04675937 -90.90925967 143.77691873 -92.3125 139.3125 C-92.57361572 138.51569824 -92.83473145 137.71889648 -93.10375977 136.89794922 C-95.87817223 127.42028596 -95.82232642 118.09877594 -95.75 108.3125 C-95.74695862 107.44599823 -95.74391724 106.57949646 -95.74078369 105.68673706 C-95.67421009 92.8881834 -95.19676537 80.60676155 -91.3125 68.3125 C-91.09819336 67.6127002 -90.88388672 66.91290039 -90.66308594 66.19189453 C-82.96472972 41.80256076 -67.14363523 21.33569126 -44.3125 9.3125 C-30.01952586 2.4141682 -15.85731185 -0.20072547 0 0 Z " fill="#FCFCFD" transform="translate(486.3125,444.6875)"/>
<path d="M0 0 C11.22 0 22.44 0 34 0 C32.87513684 14.62322111 32.87513684 14.62322111 32.07617188 20.37573242 C31.81084656 22.30789864 31.81084656 22.30789864 31.54016113 24.27909851 C31.3497171 25.63789228 31.15924607 26.99668227 30.96875 28.35546875 C30.77040152 29.79261473 30.57245246 31.22981589 30.37487793 32.66706848 C29.8590504 36.41345348 29.33895956 40.15923225 28.81756592 43.90484619 C27.98252444 49.90709798 27.15299202 55.91010866 26.32557678 61.91341591 C26.03878591 63.98844394 25.74946807 66.0631076 25.45983887 68.13774109 C24.49919375 75.08204466 23.61923385 82.01636835 23 89 C24.25876953 88.36384766 24.25876953 88.36384766 25.54296875 87.71484375 C33.12645709 83.98055838 40.79340647 80.86816636 48.8125 78.1875 C49.67061279 77.8980249 50.52872559 77.6085498 51.4128418 77.31030273 C61.47889021 74.02707669 70.7817033 72.6551244 81.375 72.6875 C82.42171875 72.67138672 83.4684375 72.65527344 84.546875 72.63867188 C97.95971771 72.63039234 108.80637928 75.84862066 118.99609375 84.7421875 C129.07634913 95.20410066 133.40952742 109.20634926 133.3125 123.4375 C133.30686035 124.3452417 133.3012207 125.2529834 133.29541016 126.18823242 C132.95543174 146.05677281 129.34578882 165.77081888 126.34008789 185.37231445 C124.26817184 198.9281119 122.43276949 212.50647065 120.73681641 226.11425781 C120.64209549 226.85987976 120.54737457 227.60550171 120.44978333 228.37371826 C120.19769268 230.35871624 119.95077271 232.34436908 119.7043457 234.33007812 C118.66040931 241.25153926 117.28997272 248.1201455 116 255 C105.11 255 94.22 255 83 255 C83 249.43685777 83.22981883 244.73290528 84.1875 239.375 C85.86292923 229.42862104 87.14824973 219.43936017 88.4375 209.4375 C89.87188027 198.33166821 91.36717559 187.24782375 93.125 176.1875 C100.46064346 143.32631873 100.46064346 143.32631873 94 112 C93.4225 111.071875 92.845 110.14375 92.25 109.1875 C85.35851419 102.48744435 77.0821024 101.6941167 67.89794922 101.68530273 C60.21131197 101.82132804 53.25938881 103.51905158 46 106 C45.21206055 106.26796387 44.42412109 106.53592773 43.61230469 106.81201172 C33.04187092 110.3416925 33.04187092 110.3416925 23.0625 115.21875 C20 117 20 117 18 117 C17.95464111 117.68860107 17.90928223 118.37720215 17.86254883 119.08666992 C17.2883334 126.87297967 16.2402376 134.52660559 15.01657104 142.23532104 C13.1346316 154.11459472 11.43255812 166.00334327 9.9375 177.9375 C8.62996608 188.35914116 7.15395908 198.73496586 5.50634766 209.10791016 C3.90261861 219.33346386 2.58803709 229.5913308 1.30664062 239.86132812 C1.15001953 241.10978516 0.99339844 242.35824219 0.83203125 243.64453125 C0.69514893 244.75159424 0.5582666 245.85865723 0.41723633 246.99926758 C0.04423178 249.68188832 -0.46883342 252.34416708 -1 255 C-12.22 255 -23.44 255 -35 255 C-34.40608014 247.27904182 -33.80335744 239.69715272 -32.765625 232.046875 C-32.64744415 231.15604218 -32.52926331 230.26520935 -32.40750122 229.34738159 C-32.02570042 226.48103095 -31.63816965 223.61549454 -31.25 220.75 C-31.11716614 219.75989929 -30.98433228 218.76979858 -30.84747314 217.74969482 C-29.05027262 204.35534265 -27.13926154 190.9838561 -25.06509399 177.62973022 C-23.33603664 166.48979044 -21.85110751 155.33728718 -20.4465332 144.15307617 C-19.44211866 136.22532159 -18.31685874 128.32935107 -17.0625 120.4375 C-15.37212937 109.79300423 -13.94067696 99.12575593 -12.5625 88.4375 C-10.90865972 75.61330296 -9.10935907 62.82422701 -7.12442017 50.04721069 C-5.30504002 38.31514843 -3.72326333 26.56254094 -2.25561523 14.78149414 C-2.02853882 12.96379517 -2.02853882 12.96379517 -1.796875 11.109375 C-1.60109863 9.51561035 -1.60109863 9.51561035 -1.40136719 7.88964844 C-1.03389137 5.24400136 -0.52383523 2.61917613 0 0 Z " fill="#FCFCFD" transform="translate(732,372)"/>
<path d="M0 0 C9.9 0 19.8 0 30 0 C30 6.05059331 29.82960834 11.43137495 28.90625 17.31640625 C28.80795898 17.97572144 28.70966797 18.63503662 28.60839844 19.31433105 C28.24611257 21.73147447 27.87242682 24.14689829 27.5 26.5625 C26.675 31.986875 25.85 37.41125 25 43 C38.53 43 52.06 43 66 43 C65.18016395 52.01819654 64.12318229 61.01454166 63 70 C48.81 70 34.62 70 20 70 C20 73.3 20 76.6 20 80 C19.66379148 83.06135405 19.28252261 86.06161802 18.80664062 89.09887695 C18.67984421 89.94752319 18.55304779 90.79616943 18.42240906 91.67053223 C18.14894779 93.49496569 17.87220708 95.31891015 17.592453 97.1423893 C17.14833191 100.03994075 16.71388099 102.93880171 16.28186035 105.83818054 C15.20728606 113.03813726 14.11877528 120.23596605 13.02630615 127.43322754 C12.10172577 133.5248197 11.18470302 139.61744805 10.27836609 145.71178246 C9.85366382 148.54709656 9.41803035 151.38058863 8.98205566 154.21418762 C5.5952772 172.98939908 5.5952772 172.98939908 10 191 C14.02865902 195.02865902 17.5270593 196.17228906 23.125 196.375 C31.52144833 196.34420618 39.09644349 193.55358553 47 191 C48.33093461 190.65721441 49.66372721 190.32134706 51 190 C51.84357963 193.059771 52.6730202 196.1232046 53.5 199.1875 C53.85771484 200.48397461 53.85771484 200.48397461 54.22265625 201.80664062 C54.44824219 202.64775391 54.67382812 203.48886719 54.90625 204.35546875 C55.22045898 205.51018677 55.22045898 205.51018677 55.54101562 206.68823242 C56.03538729 209.17823523 56.07833519 211.46781499 56 214 C47.11050106 218.42998286 38.62435477 221.55313014 29 224 C28.38656738 224.1757959 27.77313477 224.3515918 27.14111328 224.53271484 C22.65703691 225.51133767 18.00830402 225.27087155 13.4375 225.3125 C12.40302734 225.34150391 11.36855469 225.37050781 10.30273438 225.40039062 C-0.54530014 225.48869648 -10.02142755 222.54018935 -18 215 C-28.25176167 204.39144848 -28.51217648 192.03499264 -28.31640625 178.11181641 C-27.91074431 165.59872268 -25.93767085 153.21191201 -24.12565231 140.8403244 C-23.59519547 137.19359919 -23.08390879 133.54418455 -22.57055664 129.89501953 C-21.66877504 123.50303592 -20.75218413 117.11330689 -19.82703876 110.7246666 C-18.9682034 104.79089705 -18.12615428 98.85483825 -17.2890625 92.91796875 C-16.20956775 85.27612886 -15.11258013 77.63710783 -14 70 C-20.6 70 -27.2 70 -34 70 C-33.0625 57.41071429 -33.0625 57.41071429 -32.5 51.25 C-32.39171875 50.05117188 -32.39171875 50.05117188 -32.28125 48.828125 C-32 47 -32 47 -31 46 C-29.37095732 45.70297986 -27.73162369 45.46187054 -26.08984375 45.24609375 C-25.10048828 45.11396484 -24.11113281 44.98183594 -23.09179688 44.84570312 C-22.05087891 44.71099609 -21.00996094 44.57628906 -19.9375 44.4375 C-18.89271484 44.29892578 -17.84792969 44.16035156 -16.77148438 44.01757812 C-14.18146356 43.67460733 -11.59098531 43.33559369 -9 43 C-8.96189209 42.42459473 -8.92378418 41.84918945 -8.88452148 41.25634766 C-8.30150201 34.09718016 -6.80602368 27.33237026 -5.0625 20.375 C-4.79759766 19.29476563 -4.53269531 18.21453125 -4.25976562 17.1015625 C-3.51379007 14.06583072 -2.75897732 11.03250471 -2 8 C-1.34 5.36 -0.68 2.72 0 0 Z " fill="#FCFCFD" transform="translate(332,405)"/>
<path d="M0 0 C1.25103516 -0.01224609 2.50207031 -0.02449219 3.79101562 -0.03710938 C21.65701346 -0.06501046 38.83639209 4.1078867 53.8125 14.1875 C54.8125 17.1875 54.8125 17.1875 53.87207031 19.34814453 C53.38319336 20.16395996 52.89431641 20.97977539 52.390625 21.8203125 C51.85953125 22.70847656 51.3284375 23.59664063 50.78125 24.51171875 C50.2140625 25.43597656 49.646875 26.36023438 49.0625 27.3125 C48.51078125 28.24449219 47.9590625 29.17648437 47.390625 30.13671875 C43.19921163 37.05859612 43.19921163 37.05859612 39.8125 38.1875 C37.08238982 37.16076675 34.4680672 36.06768892 31.8125 34.875 C15.6294581 28.00113102 -5.41874587 25.51034903 -22.1875 32.1875 C-37.32151454 38.75469407 -47.74676294 50.33217797 -54 65.5 C-61.63144369 86.87832037 -64.1521936 114.37513826 -54.59375 135.46484375 C-49.49743322 145.33187929 -42.64390672 150.82900147 -32.1875 154.5625 C-13.63418445 159.69702221 4.41548424 154.26490806 21.71484375 147.359375 C24.8125 146.1875 24.8125 146.1875 26.8125 146.1875 C33.8125 164.87785533 33.8125 164.87785533 33.8125 170.1875 C5.83512441 182.44280692 -25.00136413 192.18608072 -55.1875 181.1875 C-69.10324439 175.74364756 -80.24885788 165.55799721 -86.875 152.125 C-99.43228925 122.74177203 -97.16718915 84.70926326 -85.45629883 55.45532227 C-75.63568853 32.38571031 -59.80329583 14.88055053 -36.1875 5.1875 C-24.21020219 1.12281961 -12.58372789 0.00638444 0 0 Z " fill="#FCFCFD" transform="translate(649.1875,444.8125)"/>
<path d="M0 0 C1.20970459 0.00523682 2.41940918 0.01047363 3.66577148 0.01586914 C4.97094727 0.0190918 6.27612305 0.02231445 7.62084961 0.02563477 C9.00952213 0.03399138 10.39819401 0.04245634 11.78686523 0.05102539 C13.17944179 0.05603873 14.57202005 0.06060193 15.96459961 0.06469727 C19.38456394 0.07653105 22.80444367 0.09301659 26.22436523 0.11352539 C26.32746923 6.09613463 26.02955004 11.73952697 25.13061523 17.64868164 C24.98317871 18.66714172 24.98317871 18.66714172 24.83276367 19.70617676 C24.47027776 22.19715205 24.0967074 24.6865043 23.72436523 27.17602539 C22.89936523 32.76540039 22.07436523 38.35477539 21.22436523 44.11352539 C34.75436523 44.11352539 48.28436523 44.11352539 62.22436523 44.11352539 C61.74999023 48.03227539 61.27561523 51.95102539 60.78686523 55.98852539 C60.63934814 57.22328613 60.49183105 58.45804688 60.33984375 59.73022461 C60.2205249 60.69976074 60.10120605 61.66929687 59.97827148 62.66821289 C59.85782471 63.66320801 59.73737793 64.65820312 59.61328125 65.68334961 C59.22436523 68.11352539 59.22436523 68.11352539 58.22436523 70.11352539 C44.36436523 70.11352539 30.50436523 70.11352539 16.22436523 70.11352539 C16.22436523 73.41352539 16.22436523 76.71352539 16.22436523 80.11352539 C16.02093631 82.23764817 15.76749926 84.35807652 15.44580078 86.4675293 C15.27529709 87.61057526 15.1047934 88.75362122 14.92912292 89.93130493 C14.74167007 91.13870331 14.55421722 92.34610168 14.36108398 93.59008789 C14.06640183 95.55243274 13.77172284 97.51477807 13.47720814 99.47714806 C13.0649766 102.21162585 12.64609085 104.94506769 12.22717285 107.67852783 C11.40493941 113.05042114 10.59318354 118.42390839 9.78421402 123.79781342 C9.48742956 125.7686524 9.18962468 127.73933762 8.89181519 129.71002197 C7.4879423 139.09374559 6.24141395 148.4892095 5.14030457 157.91323853 C5.03245132 158.82415253 4.92459808 159.73506653 4.81347656 160.67358398 C4.67755852 161.85868057 4.67755852 161.85868057 4.53889465 163.06771851 C4.22436523 165.11352539 4.22436523 165.11352539 3.22436523 168.11352539 C2.18810915 181.32412728 2.18810915 181.32412728 7.22436523 193.11352539 C13.27029706 197.7127521 20.99723407 197.03586905 28.22436523 196.11352539 C32.5928238 195.13855799 36.78577003 193.71697503 40.99389648 192.20727539 C44.22436523 191.11352539 44.22436523 191.11352539 47.22436523 191.11352539 C48.06794486 194.17329639 48.89738544 197.23672999 49.72436523 200.30102539 C50.08208008 201.5975 50.08208008 201.5975 50.44702148 202.92016602 C50.67260742 203.7612793 50.89819336 204.60239258 51.13061523 205.46899414 C51.44482422 206.62371216 51.44482422 206.62371216 51.76538086 207.80175781 C52.25975252 210.29176062 52.30270042 212.58134038 52.22436523 215.11352539 C33.98117159 224.18416357 10.89481044 230.77762155 -9.28344727 224.21508789 C-18.07079227 220.33102631 -25.12048014 214.41542738 -28.88500977 205.48046875 C-31.39788619 198.30004517 -32.47937282 191.95730765 -32.40063477 184.36352539 C-32.39443115 183.2250415 -32.38822754 182.08655762 -32.38183594 180.91357422 C-32.03473839 166.08615382 -29.38884788 151.520956 -27.00846863 136.91365051 C-25.50543451 127.60981097 -24.28560811 118.27327596 -23.08813477 108.92602539 C-22.68535006 105.80482006 -22.28133354 102.68377472 -21.87719727 99.56274414 C-21.78270294 98.83122635 -21.68820862 98.09970856 -21.59085083 97.34602356 C-20.41234877 88.25480477 -19.10137287 79.18436506 -17.77563477 70.11352539 C-24.37563477 70.11352539 -30.97563477 70.11352539 -37.77563477 70.11352539 C-37.77563477 64.58462045 -37.6006276 59.9759788 -36.77563477 54.61352539 C-36.59000977 53.38633789 -36.40438477 52.15915039 -36.21313477 50.89477539 C-35.99657227 49.51805664 -35.99657227 49.51805664 -35.77563477 48.11352539 C-30.98219084 46.31409376 -26.44877021 45.54537216 -21.40063477 44.98852539 C-20.66458008 44.9021582 -19.92852539 44.81579102 -19.17016602 44.72680664 C-17.37264294 44.51670654 -15.57422135 44.31431772 -13.77563477 44.11352539 C-13.55649414 43.02040039 -13.33735352 41.92727539 -13.11157227 40.80102539 C-11.14350057 31.1438172 -8.96642629 21.55336226 -6.58813477 11.98852539 C-6.32629395 10.92762695 -6.06445312 9.86672852 -5.79467773 8.77368164 C-5.42366943 7.29834961 -5.42366943 7.29834961 -5.04516602 5.79321289 C-4.82449463 4.91391113 -4.60382324 4.03460937 -4.37646484 3.12866211 C-3.46192171 0.06135652 -3.32218143 0.13587953 0 0 Z " fill="#FCFCFD" transform="translate(765.775634765625,603.886474609375)"/>
<path d="M0 0 C1.25159912 0.00523682 2.50319824 0.01047363 3.79272461 0.01586914 C4.78942421 0.01799156 4.78942421 0.01799156 5.80625916 0.02015686 C7.93590735 0.02577021 10.06545175 0.03832485 12.19506836 0.05102539 C13.63582205 0.05603868 15.07657739 0.06060188 16.51733398 0.06469727 C20.05577938 0.07574394 23.59416375 0.09301747 27.13256836 0.11352539 C26.95081055 1.36262695 26.76905273 2.61172852 26.58178711 3.89868164 C24.64509306 17.28927789 22.86140866 30.69443165 21.13256836 44.11352539 C34.66256836 44.11352539 48.19256836 44.11352539 62.13256836 44.11352539 C60.13256836 64.11352539 60.13256836 64.11352539 59.13256836 70.11352539 C44.94256836 70.11352539 30.75256836 70.11352539 16.13256836 70.11352539 C16.13256836 72.75352539 16.13256836 75.39352539 16.13256836 78.11352539 C15.92326816 80.30301981 15.66914101 82.48870394 15.36987305 84.66772461 C15.11895905 86.52299271 15.11895905 86.52299271 14.86297607 88.41574097 C14.67696902 89.74992206 14.4907865 91.0840787 14.30444336 92.41821289 C14.11183689 93.82417326 13.91964594 95.23019061 13.72784424 96.63626099 C13.32421158 99.58699111 12.91705338 102.53720482 12.50708008 105.48706055 C11.9933624 109.18382702 11.48598735 112.88142463 10.98103333 116.5793972 C8.91612915 131.69182267 6.80155372 146.79076576 4.3571167 161.84762573 C1.60160029 177.19262192 1.60160029 177.19262192 5.83178711 191.66040039 C9.25284213 195.48211952 12.5385549 195.99790729 17.41772461 196.35180664 C25.86863629 196.5235364 32.57829858 195.49013194 40.44506836 192.48852539 C44.13256836 191.11352539 44.13256836 191.11352539 47.13256836 191.11352539 C47.97614799 194.17329639 48.80558856 197.23672999 49.63256836 200.30102539 C49.9902832 201.5975 49.9902832 201.5975 50.35522461 202.92016602 C50.58081055 203.7612793 50.80639648 204.60239258 51.03881836 205.46899414 C51.35302734 206.62371216 51.35302734 206.62371216 51.67358398 207.80175781 C52.16795565 210.29176062 52.21090355 212.58134038 52.13256836 215.11352539 C34.13726918 223.31624819 11.07537745 231.37312873 -8.60180664 224.14477539 C-18.28975322 219.73508936 -25.24447162 214.24182037 -29.74243164 204.36352539 C-37.1538023 182.95289903 -30.09023459 155.92880271 -26.86743164 134.11352539 C-26.57006404 132.0863689 -26.27286901 130.05918709 -25.97583008 128.03198242 C-24.34391201 116.9143821 -22.68806856 105.80055091 -21.00346375 94.69081116 C-20.04689599 88.36557404 -19.14325863 82.03512559 -18.28613281 75.69555664 C-17.86743164 73.11352539 -17.86743164 73.11352539 -16.86743164 70.11352539 C-23.79743164 70.11352539 -30.72743164 70.11352539 -37.86743164 70.11352539 C-37.26984974 62.77180495 -36.62925796 55.44002532 -35.86743164 48.11352539 C-31.07398772 46.31409376 -26.54056709 45.54537216 -21.49243164 44.98852539 C-20.75637695 44.9021582 -20.02032227 44.81579102 -19.26196289 44.72680664 C-17.46443982 44.51670654 -15.66601822 44.31431772 -13.86743164 44.11352539 C-13.32488514 41.82206428 -12.78335882 39.53036901 -12.24243164 37.23852539 C-12.06929443 36.50633789 -11.89615723 35.77415039 -11.71777344 35.01977539 C-10.55723569 30.09488433 -9.42132318 25.16492064 -8.30102539 20.23071289 C-8.03306152 19.05492676 -7.76509766 17.87914062 -7.48901367 16.66772461 C-6.95185446 14.30804933 -6.41764908 11.94769959 -5.88647461 9.58666992 C-5.51546631 7.96027588 -5.51546631 7.96027588 -5.13696289 6.30102539 C-4.9162915 5.32520508 -4.69562012 4.34938477 -4.46826172 3.34399414 C-3.58285055 0.05707156 -3.51653774 0.13922435 0 0 Z " fill="#FCFCFD" transform="translate(879.867431640625,603.886474609375)"/>
<path d="M0 0 C5.57284629 4.24555956 9.91333563 8.7672453 11.07080078 15.91992188 C11.81303455 23.39298167 12.01442711 31.08676859 7.4296875 37.39453125 C-2.83555771 46.82423325 -17.56408927 46.3876624 -30.71484375 46.23046875 C-32.12829633 46.22485188 -33.54175487 46.22059172 -34.95521545 46.21760559 C-38.61962913 46.20632081 -42.28366821 46.17700186 -45.94793701 46.14349365 C-49.70938046 46.11243276 -53.4708863 46.0990245 -57.23242188 46.08398438 C-64.5717827 46.05211051 -71.91083826 46.00112142 -79.25 45.9375 C-78.94610346 44.50632599 -78.63829291 43.07598275 -78.32885742 41.64599609 C-78.15787033 40.84938568 -77.98688324 40.05277527 -77.81071472 39.23202515 C-74.2992198 24.86248375 -64.32990582 9.63344251 -51.80859375 1.671875 C-35.8904023 -7.89423422 -16.27610576 -10.19360243 0 0 Z " fill="#030363" transform="translate(506.25,479.0625)"/>
<path d="M0 0 C12.54 0 25.08 0 38 0 C35.75 10.125 35.75 10.125 34.21240234 14.61157227 C33.87220062 15.61193008 33.5319989 16.6122879 33.18148804 17.64295959 C32.81995636 18.69019699 32.45842468 19.73743439 32.0859375 20.81640625 C31.5241832 22.46200783 31.5241832 22.46200783 30.95108032 24.14085388 C29.76353774 27.61628944 28.56937928 31.08940879 27.375 34.5625 C26.56466475 36.9301882 25.7547644 39.29802529 24.9453125 41.66601562 C22.96856974 47.44574244 20.98640214 53.22358632 19 59 C19.60996826 58.90912109 20.21993652 58.81824219 20.84838867 58.72460938 C23.6275556 58.31268535 26.40750451 57.90629296 29.1875 57.5 C30.14720703 57.35691406 31.10691406 57.21382812 32.09570312 57.06640625 C33.49272461 56.86337891 33.49272461 56.86337891 34.91796875 56.65625 C35.77156982 56.53056641 36.6251709 56.40488281 37.50463867 56.27539062 C40.02469675 55.99727444 42.46685782 55.952392 45 56 C38.7176311 69.41406889 32.21260374 82.70230921 25.5625 95.9375 C24.65670939 97.74404454 23.75110974 99.55068485 22.84570312 101.35742188 C20.87862186 105.28191921 18.90978126 109.20552745 16.93922424 113.12828064 C15.95756551 115.08456495 14.97840524 117.04208677 14 119 C13.67 119 13.34 119 13 119 C13.51446182 104.65627504 14.06242133 90.3230104 15 76 C14.37432129 76.15146484 13.74864258 76.30292969 13.10400391 76.45898438 C10.2782292 77.1416655 7.4516312 77.82087432 4.625 78.5 C3.14773438 78.85771484 3.14773438 78.85771484 1.640625 79.22265625 C0.69960938 79.44824219 -0.24140625 79.67382812 -1.2109375 79.90625 C-2.51490479 80.22045898 -2.51490479 80.22045898 -3.84521484 80.54101562 C-6 81 -6 81 -8 81 C-6.83205746 53.89567824 -3.36215487 26.89723898 0 0 Z " fill="#020262" transform="translate(613,682)"/>
</svg>
